#!OML:ASF F:\VICON\USERDATA\INSTALL\rory3\rory3.ASF
:FULLY-SPECIFIED
:DEGREES
1015
root -1.24565 18.0735 3.04726 -362.281 4.69734 -0.748031
lowerback 9.51944 0.404839 0.558054
upperback 0.565067 0.650111 1.01081
thorax -4.75794 0.320161 0.649973
lowerneck -19.6897 -7.33255 -13.5026
upperneck 28.9452 -9.71527 11.2015
head 14.5562 -4.22938 5.06389
rclavicle -1.04735e-014 1.39149e-014
rhumerus -31.6965 -6.38697 -83.1911
rradius 34.7488
rwrist 4.32886
rhand -14.5893 7.77979
rfingers 7.12502
rthumb 11.5608 -21.8814
lclavicle -1.04735e-014 1.39149e-014
lhumerus -37.0317 1.31826 87.9132
lradius 36.0261
lwrist -4.05984
lhand -18.0199 25.9226
lfingers 7.12502
lthumb 8.25116 55.7415
rfemur -2.85302 -2.49643 24.7834
rtibia 22.1325
rfoot -12.538 -5.06142
rtoes 1.92971
lfemur -2.38529 -5.03312 -16.8542
ltibia 17.4846
lfoot -8.70322 -4.32863
ltoes -15.7218
1016
root -1.23326 18.0753 3.05908 -362.277 4.53931 -0.70017
lowerback 9.41424 0.382924 0.433137
upperback 0.563188 0.608803 1.05954
thorax -4.70249 0.302945 0.777133
lowerneck -19.666 -7.34579 -13.5437
upperneck 28.9306 -9.7262 11.2082
head 14.5495 -4.23902 5.07114
rclavicle 7.09413e-015 4.77083e-015
rhumerus -31.779 -6.46136 -83.1289
rradius 34.6663
rwrist 4.45705
rhand -14.5423 7.73977
rfingers 7.12502
rthumb 11.6061 -21.9188
lclavicle 7.09413e-015 4.77083e-015
lhumerus -36.9919 1.42234 87.9813
lradius 35.8355
lwrist -4.04864
lhand -17.9505 25.7659
lfingers 7.12502
lthumb 8.31809 55.5821
rfemur -2.78417 -2.32784 24.7052
rtibia 22.0973
rfoot -12.5245 -5.12795
rtoes 1.58899
lfemur -2.16774 -5.29814 -16.9964
ltibia 17.258
lfoot -8.51959 -4.68314
ltoes -13.6093
1017
root -1.22028 18.0735 3.06979 -362.302 4.41757 -0.694124
lowerback 9.36888 0.328654 0.314852
upperback 0.553044 0.527165 1.12976
thorax -4.68855 0.265814 0.927852
lowerneck -19.6935 -7.34062 -13.5004
upperneck 28.9636 -9.69944 11.1043
head 14.5556 -4.23575 5.02541
rclavicle 4.67144e-015 9.74045e-015
rhumerus -31.8563 -6.33446 -83.1215
rradius 34.5774
rwrist 4.3745
rhand -14.6274 7.77962
rfingers 7.12502
rthumb 11.5241 -21.8836
lclavicle 4.67144e-015 9.74045e-015
lhumerus -37.0259 1.66126 87.9673
lradius 35.6848
lwrist -4.17429
lhand -18.1622 25.8267
lfingers 7.12502
lthumb 8.11382 55.6509
rfemur -2.69035 -2.26737 24.6597
rtibia 22.0303
rfoot -12.5141 -5.13309
rtoes 1.12533
lfemur -1.87684 -5.5377 -17.1002
ltibia 16.9098
lfoot -8.47504 -4.68335
ltoes -13.2036
1018
root -1.20999 18.074 3.07942 -362.33 4.30908 -0.763406
lowerback 9.37364 0.278679 0.284997
upperback 0.539791 0.460943 1.19503
thorax -4.70492 0.234411 1.02138
lowerneck -19.7803 -7.34358 -13.5027
upperneck 29.0555 -9.703 11.1056
head 14.6167 -4.23549 5.02869
rclavicle -1.84621e-014 -1.11319e-014
rhumerus -31.9494 -6.3247 -83.1292
rradius 34.5632
rwrist 4.24762
rhand -14.7045 7.75465
rfingers 7.12502
rthumb 11.4497 -21.9127
lclavicle -1.84621e-014 -1.11319e-014
lhumerus -37.014 1.7924 87.9263
lradius 35.5
lwrist -4.20919
lhand -18.4243 25.71
lfingers 7.12502
lthumb 7.86083 55.5438
rfemur -2.59822 -2.07052 24.7135
rtibia 21.9781
rfoot -12.5175 -5.18368
rtoes 1.7309
lfemur -1.57844 -5.59974 -17.1003
ltibia 16.5118
lfoot -8.4319 -4.25214
ltoes -14.1593
1019
root -1.20226 18.0781 3.08811 -362.323 4.12321 -0.743428
lowerback 9.31051 0.272697 0.171131
upperback 0.54995 0.440916 1.20976
thorax -4.6596 0.226962 1.10364
lowerneck -19.824 -7.32168 -13.5135
upperneck 29.116 -9.70561 11.2124
head 14.6621 -4.2235 5.07847
rclavicle -3.97569e-015 -4.37326e-015
rhumerus -32.0544 -6.79751 -83.0466
rradius 34.5185
rwrist 4.63793
rhand -14.7224 7.63384
rfingers 7.12502
rthumb 11.4325 -22.0345
lclavicle -3.97569e-015 -4.37326e-015
lhumerus -36.8894 1.83962 87.8463
lradius 35.2619
lwrist -4.18447
lhand -18.4466 25.7367
lfingers 7.12502
lthumb 7.8393 55.5714
rfemur -2.54617 -1.8488 24.6881
rtibia 21.9389
rfoot -12.474 -5.22442
rtoes 1.85574
lfemur -1.31828 -5.55935 -17.1761
ltibia 16.1318
lfoot -8.3464 -3.96482
ltoes -14.6298
1020
root -1.19347 18.0781 3.09983 -362.322 3.87444 -0.628873
lowerback 9.24341 0.301905 -0.0778121
upperback 0.510943 0.45427 1.22517
thorax -4.66505 0.23903 1.25835
lowerneck -19.6382 -7.27575 -13.6142
upperneck 29.1168 -9.68224 11.3681
head 14.6348 -4.21176 5.17065
rclavicle 8.57259e-015 1.03368e-014
rhumerus -32.2653 -7.2303 -82.9142
rradius 34.3798
rwrist 5.08925
rhand -14.8694 7.67789
rfingers 7.12502
rthumb 11.2907 -21.9982
lclavicle 8.57259e-015 1.03368e-014
lhumerus -36.9022 1.99798 87.7465
lradius 35.0776
lwrist -4.33391
lhand -18.2725 26.2429
lfingers 7.12502
lthumb 8.00732 56.0712
rfemur -2.4989 -1.66431 24.5651
rtibia 21.926
rfoot -12.43 -5.29075
rtoes 1.04185
lfemur -0.988904 -5.65925 -17.3671
ltibia 15.7253
lfoot -8.19157 -3.82044
ltoes -14.8194
1021
root -1.1824 18.081 3.11319 -362.35 3.62948 -0.486515
lowerback 9.26388 0.35543 -0.289933
upperback 0.398462 0.502835 1.19551
thorax -4.79667 0.268089 1.3406
lowerneck -19.3069 -7.25977 -13.5641
upperneck 29.0848 -9.71423 11.35
head 14.5478 -4.23343 5.1504
rclavicle -3.91357e-015 -7.95139e-016
rhumerus -32.6039 -7.52171 -82.8509
rradius 34.2224
rwrist 5.08392
rhand -14.9783 7.92084
rfingers 7.12502
rthumb 11.1857 -21.761
lclavicle -3.91357e-015 -7.95139e-016
lhumerus -37.0467 2.09554 87.6453
lradius 34.8216
lwrist -4.4847
lhand -18.231 26.092
lfingers 7.12502
lthumb 8.04744 55.9188
rfemur -2.42582 -1.50543 24.3886
rtibia 21.9353
rfoot -12.4244 -5.24904
rtoes 0.82278
lfemur -0.579082 -5.81535 -17.6077
ltibia 15.2785
lfoot -7.97372 -3.56271
ltoes -14.8371
1022
root -1.17193 18.0892 3.12632 -362.37 3.38417 -0.243047
lowerback 9.20512 0.400864 -0.577329
upperback 0.359593 0.528423 1.10062
thorax -4.80667 0.286262 1.40052
lowerneck -19.1099 -7.25407 -13.3818
upperneck 29.0309 -9.76727 11.2748
head 14.4715 -4.25197 5.07575
rclavicle -9.19379e-015 1.19271e-015
rhumerus -32.7479 -7.91519 -82.8853
rradius 33.978
rwrist 5.16842
rhand -15.35 8.00803
rfingers 7.12502
rthumb 10.8271 -21.6929
lclavicle -9.19379e-015 1.19271e-015
lhumerus -37.1121 2.20868 87.4932
lradius 34.6599
lwrist -4.50248
lhand -18.3568 25.7609
lfingers 7.12502
lthumb 7.92595 55.5923
rfemur -2.31899 -1.33774 24.0832
rtibia 21.9484
rfoot -12.518 -5.09861
rtoes 1.8003
lfemur -0.186374 -5.9364 -17.9615
ltibia 14.7742
lfoot -7.62032 -3.13151
ltoes -13.8519
1023
root -1.16419 18.0971 3.13758 -362.39 3.14829 -0.0974375
lowerback 9.05075 0.425455 -0.813422
upperback 0.42063 0.534393 1.05775
thorax -4.65829 0.292798 1.48872
lowerneck -19.0961 -7.24466 -13.2989
upperneck 28.9929 -9.77967 11.2692
head 14.4477 -4.24941 5.0548
rclavicle 5.49143e-015 1.98785e-016
rhumerus -32.6816 -8.28295 -82.9347
rradius 33.7692
rwrist 5.59578
rhand -15.6199 8.11045
rfingers 7.12502
rthumb 10.5668 -21.6039
lclavicle 5.49143e-015 1.98785e-016
lhumerus -37.1254 2.4433 87.3151
lradius 34.6413
lwrist -4.68901
lhand -18.5293 25.475
lfingers 7.12502
lthumb 7.75951 55.3127
rfemur -2.18855 -1.07793 23.9112
rtibia 21.9352
rfoot -12.6471 -5.13829
rtoes 2.61518
lfemur 0.199076 -5.94239 -18.1842
ltibia 14.1941
lfoot -7.24859 -2.86747
ltoes -11.7562
